<svg width="33" height="33" viewBox="0 0 33 33" fill="none" xmlns="http://www.w3.org/2000/svg">
<path d="M3.5 8H19.5C20.5609 8 21.5783 8.42143 22.3284 9.17157C23.0786 9.92172 23.5 10.9391 23.5 12V24C23.5 24.2652 23.3946 24.5196 23.2071 24.7071C23.0196 24.8946 22.7652 25 22.5 25H6.5C5.43913 25 4.42172 24.5786 3.67157 23.8284C2.92143 23.0783 2.5 22.0609 2.5 21V9C2.5 8.73478 2.60536 8.48043 2.79289 8.29289C2.98043 8.10536 3.23478 8 3.5 8V8Z" stroke="#000AFF" stroke-width="2" stroke-linecap="round" stroke-linejoin="round"/>
<path d="M23.5 14.5L30.5 10.5V22.5L23.5 18.5" stroke="#000AFF" stroke-width="2" stroke-linecap="round" stroke-linejoin="round"/>
</svg>
